The main attraction is voice of Ravana by Lt Amresh Puri sir, and ram by Mr. Arun Govil sir Animation amazing classic touch. Screenshots included.

Media Info :
 
General
Complete name                            : Ramayana The Legend of Prince Rama Format                                   : MPEG-4
Format profile                           : Base Media
Codec ID                                 : isom
File size                                : 686 MiB
Duration                                 : 2h 12mn
Overall bit rate mode                    : Variable
Overall bit rate                         : 726 Kbps
Writing application                      : Lavf52.61.0

Video
ID                                       : 1
Format                                   : MPEG-4 Visual
Format profile                           : Simple@L3
Format settings, BVOP                    : No
Format settings, QPel                    : No
Format settings, GMC                     : No warppoints
Format settings, Matrix                  : Default (H.263)
Codec ID                                 : 20
Duration                                 : 2h 12mn
Bit rate                                 : 640 Kbps
Width                                    : 640 pixels
Height                                   : 480 pixels
Display aspect ratio                     : 4:3
Frame rate mode                          : Variable
Frame rate                               : 25.000 fps
Original frame rate                      : 29.970 fps
Minimum frame rate                       : 14.985 fps
Maximum frame rate                       : 29.970 fps
Color space                              : YUV
Chroma subsampling                       : 4:2:0
Bit depth                                : 8 bits
Scan type                                : Progressive
Compression mode                         : Lossy
Bits/(Pixel*Frame)                       : 0.083
Stream size                              : 604 MiB (88%)
Writing library                          : XviD 1.2.1 (UTC 2008-12-04)

Audio
ID                                       : 2
Format                                   : AAC
Format/Info                              : Advanced Audio Codec
Format profile                           : LC
Codec ID                                 : 40
Duration                                 : 2h 12mn
Bit rate mode                            : Variable
Bit rate                                 : 82.7 Kbps
Channel(s)                               : 2 channels
Channel positions                        : Front: L R
Sampling rate                            : 24.0 KHz
Compression mode                         : Lossy
Stream size                              : 78.1 MiB (11%)

